<?xml version="1.0" encoding="UTF-8"?>
<svg width="1904px" height="1080px" viewBox="0 0 1904 1080" version="1.1" xmlns="http://www.w3.org/2000/svg" xmlns:xlink="http://www.w3.org/1999/xlink">
    <!-- Generator: Sketch 55.2 (78181) - https://sketchapp.com -->
    <title>Group 6</title>
    <desc>Created with Sketch.</desc>
    <g id="Page-1" stroke="none" stroke-width="1" fill="none" fill-rule="evenodd">
        <g id="ч-01-главный-экран">
            <g id="Group-3" transform="translate(-0.500000, 0.000000)">
                <g id="Group-6">
                    <path d="M70.5,0 L70.5,1080 L70.5,0 Z M1270,0 L1270,1080 L1270,0 Z M670,0 L670,1080 L670,0 Z M370,0 L370,1080 L370,0 Z M1569.5,0 L1569.5,1080 L1569.5,0 Z M969.5,0 L969.5,1080 L969.5,0 Z M170.5,0 L170.5,1080 L170.5,0 Z M1370,0 L1370,1080 L1370,0 Z M770,0 L770,1080 L770,0 Z M470,0 L470,1080 L470,0 Z M1669.5,0 L1669.5,1080 L1669.5,0 Z M1069.5,0 L1069.5,1080 L1069.5,0 Z M270.5,0 L270.5,1080 L270.5,0 Z M1470,0 L1470,1080 L1470,0 Z M870,0 L870,1080 L870,0 Z M570,0 L570,1080 L570,0 Z M1769.5,0 L1769.5,1080 L1769.5,0 Z M1169.5,0 L1169.5,1080 L1169.5,0 Z M1869.5,0 L1869.5,1080 L1869.5,0 Z" id="Combined-Shape" stroke="#1D1D1E" stroke-linecap="square"></path>
                    <path d="M0.5,50 L1904.5,50 L0.5,50 Z M0.5,407 L1904.5,407 L0.5,407 Z M0.5,767 L1904.5,767 L0.5,767 Z M0.5,227 L1904.5,227 L0.5,227 Z M0.5,584 L1904.5,584 L0.5,584 Z M0.5,944 L1904.5,944 L0.5,944 Z M0.5,140 L1904.5,140 L0.5,140 Z M0.5,497 L1904.5,497 L0.5,497 Z M0.5,857 L1904.5,857 L0.5,857 Z M0.5,317 L1904.5,317 L0.5,317 Z M0.5,674 L1904.5,674 L0.5,674 Z M0.5,1034 L1904.5,1034 L0.5,1034 Z" id="Combined-Shape" stroke="#1D1D1E" stroke-linecap="square"></path>
                    <path d="M70.5,51 C69.9477153,51 69.5,50.5522847 69.5,50 C69.5,49.4477153 69.9477153,49 70.5,49 C71.0522847,49 71.5,49.4477153 71.5,50 C71.5,50.5522847 71.0522847,51 70.5,51 Z M170.5,51 C169.947715,51 169.5,50.5522847 169.5,50 C169.5,49.4477153 169.947715,49 170.5,49 C171.052285,49 171.5,49.4477153 171.5,50 C171.5,50.5522847 171.052285,51 170.5,51 Z M270.5,51 C269.947715,51 269.5,50.5522847 269.5,50 C269.5,49.4477153 269.947715,49 270.5,49 C271.052285,49 271.5,49.4477153 271.5,50 C271.5,50.5522847 271.052285,51 270.5,51 Z M370.5,51 C369.947715,51 369.5,50.5522847 369.5,50 C369.5,49.4477153 369.947715,49 370.5,49 C371.052285,49 371.5,49.4477153 371.5,50 C371.5,50.5522847 371.052285,51 370.5,51 Z M470.5,51 C469.947715,51 469.5,50.5522847 469.5,50 C469.5,49.4477153 469.947715,49 470.5,49 C471.052285,49 471.5,49.4477153 471.5,50 C471.5,50.5522847 471.052285,51 470.5,51 Z M570.5,51 C569.947715,51 569.5,50.5522847 569.5,50 C569.5,49.4477153 569.947715,49 570.5,49 C571.052285,49 571.5,49.4477153 571.5,50 C571.5,50.5522847 571.052285,51 570.5,51 Z M670.5,51 C669.947715,51 669.5,50.5522847 669.5,50 C669.5,49.4477153 669.947715,49 670.5,49 C671.052285,49 671.5,49.4477153 671.5,50 C671.5,50.5522847 671.052285,51 670.5,51 Z M770.5,51 C769.947715,51 769.5,50.5522847 769.5,50 C769.5,49.4477153 769.947715,49 770.5,49 C771.052285,49 771.5,49.4477153 771.5,50 C771.5,50.5522847 771.052285,51 770.5,51 Z M870.5,51 C869.947715,51 869.5,50.5522847 869.5,50 C869.5,49.4477153 869.947715,49 870.5,49 C871.052285,49 871.5,49.4477153 871.5,50 C871.5,50.5522847 871.052285,51 870.5,51 Z M970.5,51 C969.947715,51 969.5,50.5522847 969.5,50 C969.5,49.4477153 969.947715,49 970.5,49 C971.052285,49 971.5,49.4477153 971.5,50 C971.5,50.5522847 971.052285,51 970.5,51 Z M1070.5,51 C1069.94772,51 1069.5,50.5522847 1069.5,50 C1069.5,49.4477153 1069.94772,49 1070.5,49 C1071.05228,49 1071.5,49.4477153 1071.5,50 C1071.5,50.5522847 1071.05228,51 1070.5,51 Z M1170.5,51 C1169.94772,51 1169.5,50.5522847 1169.5,50 C1169.5,49.4477153 1169.94772,49 1170.5,49 C1171.05228,49 1171.5,49.4477153 1171.5,50 C1171.5,50.5522847 1171.05228,51 1170.5,51 Z M1270.5,51 C1269.94772,51 1269.5,50.5522847 1269.5,50 C1269.5,49.4477153 1269.94772,49 1270.5,49 C1271.05228,49 1271.5,49.4477153 1271.5,50 C1271.5,50.5522847 1271.05228,51 1270.5,51 Z M1370.5,51 C1369.94772,51 1369.5,50.5522847 1369.5,50 C1369.5,49.4477153 1369.94772,49 1370.5,49 C1371.05228,49 1371.5,49.4477153 1371.5,50 C1371.5,50.5522847 1371.05228,51 1370.5,51 Z M1470.5,51 C1469.94772,51 1469.5,50.5522847 1469.5,50 C1469.5,49.4477153 1469.94772,49 1470.5,49 C1471.05228,49 1471.5,49.4477153 1471.5,50 C1471.5,50.5522847 1471.05228,51 1470.5,51 Z M1569.5,51 C1568.94772,51 1568.5,50.5522847 1568.5,50 C1568.5,49.4477153 1568.94772,49 1569.5,49 C1570.05228,49 1570.5,49.4477153 1570.5,50 C1570.5,50.5522847 1570.05228,51 1569.5,51 Z M1669.5,51 C1668.94772,51 1668.5,50.5522847 1668.5,50 C1668.5,49.4477153 1668.94772,49 1669.5,49 C1670.05228,49 1670.5,49.4477153 1670.5,50 C1670.5,50.5522847 1670.05228,51 1669.5,51 Z M1769.5,51 C1768.94772,51 1768.5,50.5522847 1768.5,50 C1768.5,49.4477153 1768.94772,49 1769.5,49 C1770.05228,49 1770.5,49.4477153 1770.5,50 C1770.5,50.5522847 1770.05228,51 1769.5,51 Z M1869.5,51 C1868.94772,51 1868.5,50.5522847 1868.5,50 C1868.5,49.4477153 1868.94772,49 1869.5,49 C1870.05228,49 1870.5,49.4477153 1870.5,50 C1870.5,50.5522847 1870.05228,51 1869.5,51 Z M70.5,141 C69.9477153,141 69.5,140.552285 69.5,140 C69.5,139.447715 69.9477153,139 70.5,139 C71.0522847,139 71.5,139.447715 71.5,140 C71.5,140.552285 71.0522847,141 70.5,141 Z M170.5,141 C169.947715,141 169.5,140.552285 169.5,140 C169.5,139.447715 169.947715,139 170.5,139 C171.052285,139 171.5,139.447715 171.5,140 C171.5,140.552285 171.052285,141 170.5,141 Z M270.5,141 C269.947715,141 269.5,140.552285 269.5,140 C269.5,139.447715 269.947715,139 270.5,139 C271.052285,139 271.5,139.447715 271.5,140 C271.5,140.552285 271.052285,141 270.5,141 Z M370.5,141 C369.947715,141 369.5,140.552285 369.5,140 C369.5,139.447715 369.947715,139 370.5,139 C371.052285,139 371.5,139.447715 371.5,140 C371.5,140.552285 371.052285,141 370.5,141 Z M470.5,141 C469.947715,141 469.5,140.552285 469.5,140 C469.5,139.447715 469.947715,139 470.5,139 C471.052285,139 471.5,139.447715 471.5,140 C471.5,140.552285 471.052285,141 470.5,141 Z M570.5,141 C569.947715,141 569.5,140.552285 569.5,140 C569.5,139.447715 569.947715,139 570.5,139 C571.052285,139 571.5,139.447715 571.5,140 C571.5,140.552285 571.052285,141 570.5,141 Z M670.5,141 C669.947715,141 669.5,140.552285 669.5,140 C669.5,139.447715 669.947715,139 670.5,139 C671.052285,139 671.5,139.447715 671.5,140 C671.5,140.552285 671.052285,141 670.5,141 Z M770.5,141 C769.947715,141 769.5,140.552285 769.5,140 C769.5,139.447715 769.947715,139 770.5,139 C771.052285,139 771.5,139.447715 771.5,140 C771.5,140.552285 771.052285,141 770.5,141 Z M870.5,141 C869.947715,141 869.5,140.552285 869.5,140 C869.5,139.447715 869.947715,139 870.5,139 C871.052285,139 871.5,139.447715 871.5,140 C871.5,140.552285 871.052285,141 870.5,141 Z M970.5,141 C969.947715,141 969.5,140.552285 969.5,140 C969.5,139.447715 969.947715,139 970.5,139 C971.052285,139 971.5,139.447715 971.5,140 C971.5,140.552285 971.052285,141 970.5,141 Z M1070.5,141 C1069.94772,141 1069.5,140.552285 1069.5,140 C1069.5,139.447715 1069.94772,139 1070.5,139 C1071.05228,139 1071.5,139.447715 1071.5,140 C1071.5,140.552285 1071.05228,141 1070.5,141 Z M1170.5,141 C1169.94772,141 1169.5,140.552285 1169.5,140 C1169.5,139.447715 1169.94772,139 1170.5,139 C1171.05228,139 1171.5,139.447715 1171.5,140 C1171.5,140.552285 1171.05228,141 1170.5,141 Z M1270.5,141 C1269.94772,141 1269.5,140.552285 1269.5,140 C1269.5,139.447715 1269.94772,139 1270.5,139 C1271.05228,139 1271.5,139.447715 1271.5,140 C1271.5,140.552285 1271.05228,141 1270.5,141 Z M1370.5,141 C1369.94772,141 1369.5,140.552285 1369.5,140 C1369.5,139.447715 1369.94772,139 1370.5,139 C1371.05228,139 1371.5,139.447715 1371.5,140 C1371.5,140.552285 1371.05228,141 1370.5,141 Z M1470.5,141 C1469.94772,141 1469.5,140.552285 1469.5,140 C1469.5,139.447715 1469.94772,139 1470.5,139 C1471.05228,139 1471.5,139.447715 1471.5,140 C1471.5,140.552285 1471.05228,141 1470.5,141 Z M1569.5,141 C1568.94772,141 1568.5,140.552285 1568.5,140 C1568.5,139.447715 1568.94772,139 1569.5,139 C1570.05228,139 1570.5,139.447715 1570.5,140 C1570.5,140.552285 1570.05228,141 1569.5,141 Z M1669.5,141 C1668.94772,141 1668.5,140.552285 1668.5,140 C1668.5,139.447715 1668.94772,139 1669.5,139 C1670.05228,139 1670.5,139.447715 1670.5,140 C1670.5,140.552285 1670.05228,141 1669.5,141 Z M1769.5,141 C1768.94772,141 1768.5,140.552285 1768.5,140 C1768.5,139.447715 1768.94772,139 1769.5,139 C1770.05228,139 1770.5,139.447715 1770.5,140 C1770.5,140.552285 1770.05228,141 1769.5,141 Z M1869.5,141 C1868.94772,141 1868.5,140.552285 1868.5,140 C1868.5,139.447715 1868.94772,139 1869.5,139 C1870.05228,139 1870.5,139.447715 1870.5,140 C1870.5,140.552285 1870.05228,141 1869.5,141 Z M70.5,228 C69.9477153,228 69.5,227.552285 69.5,227 C69.5,226.447715 69.9477153,226 70.5,226 C71.0522847,226 71.5,226.447715 71.5,227 C71.5,227.552285 71.0522847,228 70.5,228 Z M170.5,228 C169.947715,228 169.5,227.552285 169.5,227 C169.5,226.447715 169.947715,226 170.5,226 C171.052285,226 171.5,226.447715 171.5,227 C171.5,227.552285 171.052285,228 170.5,228 Z M270.5,228 C269.947715,228 269.5,227.552285 269.5,227 C269.5,226.447715 269.947715,226 270.5,226 C271.052285,226 271.5,226.447715 271.5,227 C271.5,227.552285 271.052285,228 270.5,228 Z M370.5,228 C369.947715,228 369.5,227.552285 369.5,227 C369.5,226.447715 369.947715,226 370.5,226 C371.052285,226 371.5,226.447715 371.5,227 C371.5,227.552285 371.052285,228 370.5,228 Z M470.5,228 C469.947715,228 469.5,227.552285 469.5,227 C469.5,226.447715 469.947715,226 470.5,226 C471.052285,226 471.5,226.447715 471.5,227 C471.5,227.552285 471.052285,228 470.5,228 Z M570.5,228 C569.947715,228 569.5,227.552285 569.5,227 C569.5,226.447715 569.947715,226 570.5,226 C571.052285,226 571.5,226.447715 571.5,227 C571.5,227.552285 571.052285,228 570.5,228 Z M670.5,228 C669.947715,228 669.5,227.552285 669.5,227 C669.5,226.447715 669.947715,226 670.5,226 C671.052285,226 671.5,226.447715 671.5,227 C671.5,227.552285 671.052285,228 670.5,228 Z M770.5,228 C769.947715,228 769.5,227.552285 769.5,227 C769.5,226.447715 769.947715,226 770.5,226 C771.052285,226 771.5,226.447715 771.5,227 C771.5,227.552285 771.052285,228 770.5,228 Z M870.5,228 C869.947715,228 869.5,227.552285 869.5,227 C869.5,226.447715 869.947715,226 870.5,226 C871.052285,226 871.5,226.447715 871.5,227 C871.5,227.552285 871.052285,228 870.5,228 Z M970.5,228 C969.947715,228 969.5,227.552285 969.5,227 C969.5,226.447715 969.947715,226 970.5,226 C971.052285,226 971.5,226.447715 971.5,227 C971.5,227.552285 971.052285,228 970.5,228 Z M1070.5,228 C1069.94772,228 1069.5,227.552285 1069.5,227 C1069.5,226.447715 1069.94772,226 1070.5,226 C1071.05228,226 1071.5,226.447715 1071.5,227 C1071.5,227.552285 1071.05228,228 1070.5,228 Z M1170.5,228 C1169.94772,228 1169.5,227.552285 1169.5,227 C1169.5,226.447715 1169.94772,226 1170.5,226 C1171.05228,226 1171.5,226.447715 1171.5,227 C1171.5,227.552285 1171.05228,228 1170.5,228 Z M1270.5,228 C1269.94772,228 1269.5,227.552285 1269.5,227 C1269.5,226.447715 1269.94772,226 1270.5,226 C1271.05228,226 1271.5,226.447715 1271.5,227 C1271.5,227.552285 1271.05228,228 1270.5,228 Z M1370.5,228 C1369.94772,228 1369.5,227.552285 1369.5,227 C1369.5,226.447715 1369.94772,226 1370.5,226 C1371.05228,226 1371.5,226.447715 1371.5,227 C1371.5,227.552285 1371.05228,228 1370.5,228 Z M1470.5,228 C1469.94772,228 1469.5,227.552285 1469.5,227 C1469.5,226.447715 1469.94772,226 1470.5,226 C1471.05228,226 1471.5,226.447715 1471.5,227 C1471.5,227.552285 1471.05228,228 1470.5,228 Z M1569.5,228 C1568.94772,228 1568.5,227.552285 1568.5,227 C1568.5,226.447715 1568.94772,226 1569.5,226 C1570.05228,226 1570.5,226.447715 1570.5,227 C1570.5,227.552285 1570.05228,228 1569.5,228 Z M1669.5,228 C1668.94772,228 1668.5,227.552285 1668.5,227 C1668.5,226.447715 1668.94772,226 1669.5,226 C1670.05228,226 1670.5,226.447715 1670.5,227 C1670.5,227.552285 1670.05228,228 1669.5,228 Z M1769.5,228 C1768.94772,228 1768.5,227.552285 1768.5,227 C1768.5,226.447715 1768.94772,226 1769.5,226 C1770.05228,226 1770.5,226.447715 1770.5,227 C1770.5,227.552285 1770.05228,228 1769.5,228 Z M1869.5,228 C1868.94772,228 1868.5,227.552285 1868.5,227 C1868.5,226.447715 1868.94772,226 1869.5,226 C1870.05228,226 1870.5,226.447715 1870.5,227 C1870.5,227.552285 1870.05228,228 1869.5,228 Z M70.5,318 C69.9477153,318 69.5,317.552285 69.5,317 C69.5,316.447715 69.9477153,316 70.5,316 C71.0522847,316 71.5,316.447715 71.5,317 C71.5,317.552285 71.0522847,318 70.5,318 Z M170.5,318 C169.947715,318 169.5,317.552285 169.5,317 C169.5,316.447715 169.947715,316 170.5,316 C171.052285,316 171.5,316.447715 171.5,317 C171.5,317.552285 171.052285,318 170.5,318 Z M270.5,318 C269.947715,318 269.5,317.552285 269.5,317 C269.5,316.447715 269.947715,316 270.5,316 C271.052285,316 271.5,316.447715 271.5,317 C271.5,317.552285 271.052285,318 270.5,318 Z M370.5,318 C369.947715,318 369.5,317.552285 369.5,317 C369.5,316.447715 369.947715,316 370.5,316 C371.052285,316 371.5,316.447715 371.5,317 C371.5,317.552285 371.052285,318 370.5,318 Z M470.5,318 C469.947715,318 469.5,317.552285 469.5,317 C469.5,316.447715 469.947715,316 470.5,316 C471.052285,316 471.5,316.447715 471.5,317 C471.5,317.552285 471.052285,318 470.5,318 Z M570.5,318 C569.947715,318 569.5,317.552285 569.5,317 C569.5,316.447715 569.947715,316 570.5,316 C571.052285,316 571.5,316.447715 571.5,317 C571.5,317.552285 571.052285,318 570.5,318 Z M670.5,318 C669.947715,318 669.5,317.552285 669.5,317 C669.5,316.447715 669.947715,316 670.5,316 C671.052285,316 671.5,316.447715 671.5,317 C671.5,317.552285 671.052285,318 670.5,318 Z M770.5,318 C769.947715,318 769.5,317.552285 769.5,317 C769.5,316.447715 769.947715,316 770.5,316 C771.052285,316 771.5,316.447715 771.5,317 C771.5,317.552285 771.052285,318 770.5,318 Z M870.5,318 C869.947715,318 869.5,317.552285 869.5,317 C869.5,316.447715 869.947715,316 870.5,316 C871.052285,316 871.5,316.447715 871.5,317 C871.5,317.552285 871.052285,318 870.5,318 Z M970.5,318 C969.947715,318 969.5,317.552285 969.5,317 C969.5,316.447715 969.947715,316 970.5,316 C971.052285,316 971.5,316.447715 971.5,317 C971.5,317.552285 971.052285,318 970.5,318 Z M1070.5,318 C1069.94772,318 1069.5,317.552285 1069.5,317 C1069.5,316.447715 1069.94772,316 1070.5,316 C1071.05228,316 1071.5,316.447715 1071.5,317 C1071.5,317.552285 1071.05228,318 1070.5,318 Z M1170.5,318 C1169.94772,318 1169.5,317.552285 1169.5,317 C1169.5,316.447715 1169.94772,316 1170.5,316 C1171.05228,316 1171.5,316.447715 1171.5,317 C1171.5,317.552285 1171.05228,318 1170.5,318 Z M1270.5,318 C1269.94772,318 1269.5,317.552285 1269.5,317 C1269.5,316.447715 1269.94772,316 1270.5,316 C1271.05228,316 1271.5,316.447715 1271.5,317 C1271.5,317.552285 1271.05228,318 1270.5,318 Z M1370.5,318 C1369.94772,318 1369.5,317.552285 1369.5,317 C1369.5,316.447715 1369.94772,316 1370.5,316 C1371.05228,316 1371.5,316.447715 1371.5,317 C1371.5,317.552285 1371.05228,318 1370.5,318 Z M1470.5,318 C1469.94772,318 1469.5,317.552285 1469.5,317 C1469.5,316.447715 1469.94772,316 1470.5,316 C1471.05228,316 1471.5,316.447715 1471.5,317 C1471.5,317.552285 1471.05228,318 1470.5,318 Z M1569.5,318 C1568.94772,318 1568.5,317.552285 1568.5,317 C1568.5,316.447715 1568.94772,316 1569.5,316 C1570.05228,316 1570.5,316.447715 1570.5,317 C1570.5,317.552285 1570.05228,318 1569.5,318 Z M1669.5,318 C1668.94772,318 1668.5,317.552285 1668.5,317 C1668.5,316.447715 1668.94772,316 1669.5,316 C1670.05228,316 1670.5,316.447715 1670.5,317 C1670.5,317.552285 1670.05228,318 1669.5,318 Z M1769.5,318 C1768.94772,318 1768.5,317.552285 1768.5,317 C1768.5,316.447715 1768.94772,316 1769.5,316 C1770.05228,316 1770.5,316.447715 1770.5,317 C1770.5,317.552285 1770.05228,318 1769.5,318 Z M1869.5,318 C1868.94772,318 1868.5,317.552285 1868.5,317 C1868.5,316.447715 1868.94772,316 1869.5,316 C1870.05228,316 1870.5,316.447715 1870.5,317 C1870.5,317.552285 1870.05228,318 1869.5,318 Z M70.5,408 C69.9477153,408 69.5,407.552285 69.5,407 C69.5,406.447715 69.9477153,406 70.5,406 C71.0522847,406 71.5,406.447715 71.5,407 C71.5,407.552285 71.0522847,408 70.5,408 Z M170.5,408 C169.947715,408 169.5,407.552285 169.5,407 C169.5,406.447715 169.947715,406 170.5,406 C171.052285,406 171.5,406.447715 171.5,407 C171.5,407.552285 171.052285,408 170.5,408 Z M270.5,408 C269.947715,408 269.5,407.552285 269.5,407 C269.5,406.447715 269.947715,406 270.5,406 C271.052285,406 271.5,406.447715 271.5,407 C271.5,407.552285 271.052285,408 270.5,408 Z M370.5,408 C369.947715,408 369.5,407.552285 369.5,407 C369.5,406.447715 369.947715,406 370.5,406 C371.052285,406 371.5,406.447715 371.5,407 C371.5,407.552285 371.052285,408 370.5,408 Z M470.5,408 C469.947715,408 469.5,407.552285 469.5,407 C469.5,406.447715 469.947715,406 470.5,406 C471.052285,406 471.5,406.447715 471.5,407 C471.5,407.552285 471.052285,408 470.5,408 Z M570.5,408 C569.947715,408 569.5,407.552285 569.5,407 C569.5,406.447715 569.947715,406 570.5,406 C571.052285,406 571.5,406.447715 571.5,407 C571.5,407.552285 571.052285,408 570.5,408 Z M670.5,408 C669.947715,408 669.5,407.552285 669.5,407 C669.5,406.447715 669.947715,406 670.5,406 C671.052285,406 671.5,406.447715 671.5,407 C671.5,407.552285 671.052285,408 670.5,408 Z M770.5,408 C769.947715,408 769.5,407.552285 769.5,407 C769.5,406.447715 769.947715,406 770.5,406 C771.052285,406 771.5,406.447715 771.5,407 C771.5,407.552285 771.052285,408 770.5,408 Z M870.5,408 C869.947715,408 869.5,407.552285 869.5,407 C869.5,406.447715 869.947715,406 870.5,406 C871.052285,406 871.5,406.447715 871.5,407 C871.5,407.552285 871.052285,408 870.5,408 Z M970.5,408 C969.947715,408 969.5,407.552285 969.5,407 C969.5,406.447715 969.947715,406 970.5,406 C971.052285,406 971.5,406.447715 971.5,407 C971.5,407.552285 971.052285,408 970.5,408 Z M1070.5,408 C1069.94772,408 1069.5,407.552285 1069.5,407 C1069.5,406.447715 1069.94772,406 1070.5,406 C1071.05228,406 1071.5,406.447715 1071.5,407 C1071.5,407.552285 1071.05228,408 1070.5,408 Z M1170.5,408 C1169.94772,408 1169.5,407.552285 1169.5,407 C1169.5,406.447715 1169.94772,406 1170.5,406 C1171.05228,406 1171.5,406.447715 1171.5,407 C1171.5,407.552285 1171.05228,408 1170.5,408 Z M1270.5,408 C1269.94772,408 1269.5,407.552285 1269.5,407 C1269.5,406.447715 1269.94772,406 1270.5,406 C1271.05228,406 1271.5,406.447715 1271.5,407 C1271.5,407.552285 1271.05228,408 1270.5,408 Z M1370.5,408 C1369.94772,408 1369.5,407.552285 1369.5,407 C1369.5,406.447715 1369.94772,406 1370.5,406 C1371.05228,406 1371.5,406.447715 1371.5,407 C1371.5,407.552285 1371.05228,408 1370.5,408 Z M1470.5,408 C1469.94772,408 1469.5,407.552285 1469.5,407 C1469.5,406.447715 1469.94772,406 1470.5,406 C1471.05228,406 1471.5,406.447715 1471.5,407 C1471.5,407.552285 1471.05228,408 1470.5,408 Z M1569.5,408 C1568.94772,408 1568.5,407.552285 1568.5,407 C1568.5,406.447715 1568.94772,406 1569.5,406 C1570.05228,406 1570.5,406.447715 1570.5,407 C1570.5,407.552285 1570.05228,408 1569.5,408 Z M1669.5,408 C1668.94772,408 1668.5,407.552285 1668.5,407 C1668.5,406.447715 1668.94772,406 1669.5,406 C1670.05228,406 1670.5,406.447715 1670.5,407 C1670.5,407.552285 1670.05228,408 1669.5,408 Z M1769.5,408 C1768.94772,408 1768.5,407.552285 1768.5,407 C1768.5,406.447715 1768.94772,406 1769.5,406 C1770.05228,406 1770.5,406.447715 1770.5,407 C1770.5,407.552285 1770.05228,408 1769.5,408 Z M1869.5,408 C1868.94772,408 1868.5,407.552285 1868.5,407 C1868.5,406.447715 1868.94772,406 1869.5,406 C1870.05228,406 1870.5,406.447715 1870.5,407 C1870.5,407.552285 1870.05228,408 1869.5,408 Z M70.5,498 C69.9477153,498 69.5,497.552285 69.5,497 C69.5,496.447715 69.9477153,496 70.5,496 C71.0522847,496 71.5,496.447715 71.5,497 C71.5,497.552285 71.0522847,498 70.5,498 Z M170.5,498 C169.947715,498 169.5,497.552285 169.5,497 C169.5,496.447715 169.947715,496 170.5,496 C171.052285,496 171.5,496.447715 171.5,497 C171.5,497.552285 171.052285,498 170.5,498 Z M270.5,498 C269.947715,498 269.5,497.552285 269.5,497 C269.5,496.447715 269.947715,496 270.5,496 C271.052285,496 271.5,496.447715 271.5,497 C271.5,497.552285 271.052285,498 270.5,498 Z M370.5,498 C369.947715,498 369.5,497.552285 369.5,497 C369.5,496.447715 369.947715,496 370.5,496 C371.052285,496 371.5,496.447715 371.5,497 C371.5,497.552285 371.052285,498 370.5,498 Z M470.5,498 C469.947715,498 469.5,497.552285 469.5,497 C469.5,496.447715 469.947715,496 470.5,496 C471.052285,496 471.5,496.447715 471.5,497 C471.5,497.552285 471.052285,498 470.5,498 Z M570.5,498 C569.947715,498 569.5,497.552285 569.5,497 C569.5,496.447715 569.947715,496 570.5,496 C571.052285,496 571.5,496.447715 571.5,497 C571.5,497.552285 571.052285,498 570.5,498 Z M670.5,498 C669.947715,498 669.5,497.552285 669.5,497 C669.5,496.447715 669.947715,496 670.5,496 C671.052285,496 671.5,496.447715 671.5,497 C671.5,497.552285 671.052285,498 670.5,498 Z M770.5,498 C769.947715,498 769.5,497.552285 769.5,497 C769.5,496.447715 769.947715,496 770.5,496 C771.052285,496 771.5,496.447715 771.5,497 C771.5,497.552285 771.052285,498 770.5,498 Z M870.5,498 C869.947715,498 869.5,497.552285 869.5,497 C869.5,496.447715 869.947715,496 870.5,496 C871.052285,496 871.5,496.447715 871.5,497 C871.5,497.552285 871.052285,498 870.5,498 Z M970.5,498 C969.947715,498 969.5,497.552285 969.5,497 C969.5,496.447715 969.947715,496 970.5,496 C971.052285,496 971.5,496.447715 971.5,497 C971.5,497.552285 971.052285,498 970.5,498 Z M1070.5,498 C1069.94772,498 1069.5,497.552285 1069.5,497 C1069.5,496.447715 1069.94772,496 1070.5,496 C1071.05228,496 1071.5,496.447715 1071.5,497 C1071.5,497.552285 1071.05228,498 1070.5,498 Z M1170.5,498 C1169.94772,498 1169.5,497.552285 1169.5,497 C1169.5,496.447715 1169.94772,496 1170.5,496 C1171.05228,496 1171.5,496.447715 1171.5,497 C1171.5,497.552285 1171.05228,498 1170.5,498 Z M1270.5,498 C1269.94772,498 1269.5,497.552285 1269.5,497 C1269.5,496.447715 1269.94772,496 1270.5,496 C1271.05228,496 1271.5,496.447715 1271.5,497 C1271.5,497.552285 1271.05228,498 1270.5,498 Z M1370.5,498 C1369.94772,498 1369.5,497.552285 1369.5,497 C1369.5,496.447715 1369.94772,496 1370.5,496 C1371.05228,496 1371.5,496.447715 1371.5,497 C1371.5,497.552285 1371.05228,498 1370.5,498 Z M1470.5,498 C1469.94772,498 1469.5,497.552285 1469.5,497 C1469.5,496.447715 1469.94772,496 1470.5,496 C1471.05228,496 1471.5,496.447715 1471.5,497 C1471.5,497.552285 1471.05228,498 1470.5,498 Z M1569.5,498 C1568.94772,498 1568.5,497.552285 1568.5,497 C1568.5,496.447715 1568.94772,496 1569.5,496 C1570.05228,496 1570.5,496.447715 1570.5,497 C1570.5,497.552285 1570.05228,498 1569.5,498 Z M1669.5,498 C1668.94772,498 1668.5,497.552285 1668.5,497 C1668.5,496.447715 1668.94772,496 1669.5,496 C1670.05228,496 1670.5,496.447715 1670.5,497 C1670.5,497.552285 1670.05228,498 1669.5,498 Z M1769.5,498 C1768.94772,498 1768.5,497.552285 1768.5,497 C1768.5,496.447715 1768.94772,496 1769.5,496 C1770.05228,496 1770.5,496.447715 1770.5,497 C1770.5,497.552285 1770.05228,498 1769.5,498 Z M1869.5,498 C1868.94772,498 1868.5,497.552285 1868.5,497 C1868.5,496.447715 1868.94772,496 1869.5,496 C1870.05228,496 1870.5,496.447715 1870.5,497 C1870.5,497.552285 1870.05228,498 1869.5,498 Z M70.5,585 C69.9477153,585 69.5,584.552285 69.5,584 C69.5,583.447715 69.9477153,583 70.5,583 C71.0522847,583 71.5,583.447715 71.5,584 C71.5,584.552285 71.0522847,585 70.5,585 Z M170.5,585 C169.947715,585 169.5,584.552285 169.5,584 C169.5,583.447715 169.947715,583 170.5,583 C171.052285,583 171.5,583.447715 171.5,584 C171.5,584.552285 171.052285,585 170.5,585 Z M270.5,585 C269.947715,585 269.5,584.552285 269.5,584 C269.5,583.447715 269.947715,583 270.5,583 C271.052285,583 271.5,583.447715 271.5,584 C271.5,584.552285 271.052285,585 270.5,585 Z M370.5,585 C369.947715,585 369.5,584.552285 369.5,584 C369.5,583.447715 369.947715,583 370.5,583 C371.052285,583 371.5,583.447715 371.5,584 C371.5,584.552285 371.052285,585 370.5,585 Z M470.5,585 C469.947715,585 469.5,584.552285 469.5,584 C469.5,583.447715 469.947715,583 470.5,583 C471.052285,583 471.5,583.447715 471.5,584 C471.5,584.552285 471.052285,585 470.5,585 Z M570.5,585 C569.947715,585 569.5,584.552285 569.5,584 C569.5,583.447715 569.947715,583 570.5,583 C571.052285,583 571.5,583.447715 571.5,584 C571.5,584.552285 571.052285,585 570.5,585 Z M670.5,585 C669.947715,585 669.5,584.552285 669.5,584 C669.5,583.447715 669.947715,583 670.5,583 C671.052285,583 671.5,583.447715 671.5,584 C671.5,584.552285 671.052285,585 670.5,585 Z M770.5,585 C769.947715,585 769.5,584.552285 769.5,584 C769.5,583.447715 769.947715,583 770.5,583 C771.052285,583 771.5,583.447715 771.5,584 C771.5,584.552285 771.052285,585 770.5,585 Z M870.5,585 C869.947715,585 869.5,584.552285 869.5,584 C869.5,583.447715 869.947715,583 870.5,583 C871.052285,583 871.5,583.447715 871.5,584 C871.5,584.552285 871.052285,585 870.5,585 Z M970.5,585 C969.947715,585 969.5,584.552285 969.5,584 C969.5,583.447715 969.947715,583 970.5,583 C971.052285,583 971.5,583.447715 971.5,584 C971.5,584.552285 971.052285,585 970.5,585 Z M1070.5,585 C1069.94772,585 1069.5,584.552285 1069.5,584 C1069.5,583.447715 1069.94772,583 1070.5,583 C1071.05228,583 1071.5,583.447715 1071.5,584 C1071.5,584.552285 1071.05228,585 1070.5,585 Z M1170.5,585 C1169.94772,585 1169.5,584.552285 1169.5,584 C1169.5,583.447715 1169.94772,583 1170.5,583 C1171.05228,583 1171.5,583.447715 1171.5,584 C1171.5,584.552285 1171.05228,585 1170.5,585 Z M1270.5,585 C1269.94772,585 1269.5,584.552285 1269.5,584 C1269.5,583.447715 1269.94772,583 1270.5,583 C1271.05228,583 1271.5,583.447715 1271.5,584 C1271.5,584.552285 1271.05228,585 1270.5,585 Z M1370.5,585 C1369.94772,585 1369.5,584.552285 1369.5,584 C1369.5,583.447715 1369.94772,583 1370.5,583 C1371.05228,583 1371.5,583.447715 1371.5,584 C1371.5,584.552285 1371.05228,585 1370.5,585 Z M1470.5,585 C1469.94772,585 1469.5,584.552285 1469.5,584 C1469.5,583.447715 1469.94772,583 1470.5,583 C1471.05228,583 1471.5,583.447715 1471.5,584 C1471.5,584.552285 1471.05228,585 1470.5,585 Z M1569.5,585 C1568.94772,585 1568.5,584.552285 1568.5,584 C1568.5,583.447715 1568.94772,583 1569.5,583 C1570.05228,583 1570.5,583.447715 1570.5,584 C1570.5,584.552285 1570.05228,585 1569.5,585 Z M1669.5,585 C1668.94772,585 1668.5,584.552285 1668.5,584 C1668.5,583.447715 1668.94772,583 1669.5,583 C1670.05228,583 1670.5,583.447715 1670.5,584 C1670.5,584.552285 1670.05228,585 1669.5,585 Z M1769.5,585 C1768.94772,585 1768.5,584.552285 1768.5,584 C1768.5,583.447715 1768.94772,583 1769.5,583 C1770.05228,583 1770.5,583.447715 1770.5,584 C1770.5,584.552285 1770.05228,585 1769.5,585 Z M1869.5,585 C1868.94772,585 1868.5,584.552285 1868.5,584 C1868.5,583.447715 1868.94772,583 1869.5,583 C1870.05228,583 1870.5,583.447715 1870.5,584 C1870.5,584.552285 1870.05228,585 1869.5,585 Z M70.5,675 C69.9477153,675 69.5,674.552285 69.5,674 C69.5,673.447715 69.9477153,673 70.5,673 C71.0522847,673 71.5,673.447715 71.5,674 C71.5,674.552285 71.0522847,675 70.5,675 Z M170.5,675 C169.947715,675 169.5,674.552285 169.5,674 C169.5,673.447715 169.947715,673 170.5,673 C171.052285,673 171.5,673.447715 171.5,674 C171.5,674.552285 171.052285,675 170.5,675 Z M270.5,675 C269.947715,675 269.5,674.552285 269.5,674 C269.5,673.447715 269.947715,673 270.5,673 C271.052285,673 271.5,673.447715 271.5,674 C271.5,674.552285 271.052285,675 270.5,675 Z M370.5,675 C369.947715,675 369.5,674.552285 369.5,674 C369.5,673.447715 369.947715,673 370.5,673 C371.052285,673 371.5,673.447715 371.5,674 C371.5,674.552285 371.052285,675 370.5,675 Z M470.5,675 C469.947715,675 469.5,674.552285 469.5,674 C469.5,673.447715 469.947715,673 470.5,673 C471.052285,673 471.5,673.447715 471.5,674 C471.5,674.552285 471.052285,675 470.5,675 Z M570.5,675 C569.947715,675 569.5,674.552285 569.5,674 C569.5,673.447715 569.947715,673 570.5,673 C571.052285,673 571.5,673.447715 571.5,674 C571.5,674.552285 571.052285,675 570.5,675 Z M670.5,675 C669.947715,675 669.5,674.552285 669.5,674 C669.5,673.447715 669.947715,673 670.5,673 C671.052285,673 671.5,673.447715 671.5,674 C671.5,674.552285 671.052285,675 670.5,675 Z M770.5,675 C769.947715,675 769.5,674.552285 769.5,674 C769.5,673.447715 769.947715,673 770.5,673 C771.052285,673 771.5,673.447715 771.5,674 C771.5,674.552285 771.052285,675 770.5,675 Z M870.5,675 C869.947715,675 869.5,674.552285 869.5,674 C869.5,673.447715 869.947715,673 870.5,673 C871.052285,673 871.5,673.447715 871.5,674 C871.5,674.552285 871.052285,675 870.5,675 Z M970.5,675 C969.947715,675 969.5,674.552285 969.5,674 C969.5,673.447715 969.947715,673 970.5,673 C971.052285,673 971.5,673.447715 971.5,674 C971.5,674.552285 971.052285,675 970.5,675 Z M1070.5,675 C1069.94772,675 1069.5,674.552285 1069.5,674 C1069.5,673.447715 1069.94772,673 1070.5,673 C1071.05228,673 1071.5,673.447715 1071.5,674 C1071.5,674.552285 1071.05228,675 1070.5,675 Z M1170.5,675 C1169.94772,675 1169.5,674.552285 1169.5,674 C1169.5,673.447715 1169.94772,673 1170.5,673 C1171.05228,673 1171.5,673.447715 1171.5,674 C1171.5,674.552285 1171.05228,675 1170.5,675 Z M1270.5,675 C1269.94772,675 1269.5,674.552285 1269.5,674 C1269.5,673.447715 1269.94772,673 1270.5,673 C1271.05228,673 1271.5,673.447715 1271.5,674 C1271.5,674.552285 1271.05228,675 1270.5,675 Z M1370.5,675 C1369.94772,675 1369.5,674.552285 1369.5,674 C1369.5,673.447715 1369.94772,673 1370.5,673 C1371.05228,673 1371.5,673.447715 1371.5,674 C1371.5,674.552285 1371.05228,675 1370.5,675 Z M1470.5,675 C1469.94772,675 1469.5,674.552285 1469.5,674 C1469.5,673.447715 1469.94772,673 1470.5,673 C1471.05228,673 1471.5,673.447715 1471.5,674 C1471.5,674.552285 1471.05228,675 1470.5,675 Z M1569.5,675 C1568.94772,675 1568.5,674.552285 1568.5,674 C1568.5,673.447715 1568.94772,673 1569.5,673 C1570.05228,673 1570.5,673.447715 1570.5,674 C1570.5,674.552285 1570.05228,675 1569.5,675 Z M1669.5,675 C1668.94772,675 1668.5,674.552285 1668.5,674 C1668.5,673.447715 1668.94772,673 1669.5,673 C1670.05228,673 1670.5,673.447715 1670.5,674 C1670.5,674.552285 1670.05228,675 1669.5,675 Z M1769.5,675 C1768.94772,675 1768.5,674.552285 1768.5,674 C1768.5,673.447715 1768.94772,673 1769.5,673 C1770.05228,673 1770.5,673.447715 1770.5,674 C1770.5,674.552285 1770.05228,675 1769.5,675 Z M1869.5,675 C1868.94772,675 1868.5,674.552285 1868.5,674 C1868.5,673.447715 1868.94772,673 1869.5,673 C1870.05228,673 1870.5,673.447715 1870.5,674 C1870.5,674.552285 1870.05228,675 1869.5,675 Z M70.5,768 C69.9477153,768 69.5,767.552285 69.5,767 C69.5,766.447715 69.9477153,766 70.5,766 C71.0522847,766 71.5,766.447715 71.5,767 C71.5,767.552285 71.0522847,768 70.5,768 Z M170.5,768 C169.947715,768 169.5,767.552285 169.5,767 C169.5,766.447715 169.947715,766 170.5,766 C171.052285,766 171.5,766.447715 171.5,767 C171.5,767.552285 171.052285,768 170.5,768 Z M270.5,768 C269.947715,768 269.5,767.552285 269.5,767 C269.5,766.447715 269.947715,766 270.5,766 C271.052285,766 271.5,766.447715 271.5,767 C271.5,767.552285 271.052285,768 270.5,768 Z M370.5,768 C369.947715,768 369.5,767.552285 369.5,767 C369.5,766.447715 369.947715,766 370.5,766 C371.052285,766 371.5,766.447715 371.5,767 C371.5,767.552285 371.052285,768 370.5,768 Z M470.5,768 C469.947715,768 469.5,767.552285 469.5,767 C469.5,766.447715 469.947715,766 470.5,766 C471.052285,766 471.5,766.447715 471.5,767 C471.5,767.552285 471.052285,768 470.5,768 Z M570.5,768 C569.947715,768 569.5,767.552285 569.5,767 C569.5,766.447715 569.947715,766 570.5,766 C571.052285,766 571.5,766.447715 571.5,767 C571.5,767.552285 571.052285,768 570.5,768 Z M670.5,768 C669.947715,768 669.5,767.552285 669.5,767 C669.5,766.447715 669.947715,766 670.5,766 C671.052285,766 671.5,766.447715 671.5,767 C671.5,767.552285 671.052285,768 670.5,768 Z M770.5,768 C769.947715,768 769.5,767.552285 769.5,767 C769.5,766.447715 769.947715,766 770.5,766 C771.052285,766 771.5,766.447715 771.5,767 C771.5,767.552285 771.052285,768 770.5,768 Z M870.5,768 C869.947715,768 869.5,767.552285 869.5,767 C869.5,766.447715 869.947715,766 870.5,766 C871.052285,766 871.5,766.447715 871.5,767 C871.5,767.552285 871.052285,768 870.5,768 Z M970.5,768 C969.947715,768 969.5,767.552285 969.5,767 C969.5,766.447715 969.947715,766 970.5,766 C971.052285,766 971.5,766.447715 971.5,767 C971.5,767.552285 971.052285,768 970.5,768 Z M1070.5,768 C1069.94772,768 1069.5,767.552285 1069.5,767 C1069.5,766.447715 1069.94772,766 1070.5,766 C1071.05228,766 1071.5,766.447715 1071.5,767 C1071.5,767.552285 1071.05228,768 1070.5,768 Z M1170.5,768 C1169.94772,768 1169.5,767.552285 1169.5,767 C1169.5,766.447715 1169.94772,766 1170.5,766 C1171.05228,766 1171.5,766.447715 1171.5,767 C1171.5,767.552285 1171.05228,768 1170.5,768 Z M1270.5,768 C1269.94772,768 1269.5,767.552285 1269.5,767 C1269.5,766.447715 1269.94772,766 1270.5,766 C1271.05228,766 1271.5,766.447715 1271.5,767 C1271.5,767.552285 1271.05228,768 1270.5,768 Z M1370.5,768 C1369.94772,768 1369.5,767.552285 1369.5,767 C1369.5,766.447715 1369.94772,766 1370.5,766 C1371.05228,766 1371.5,766.447715 1371.5,767 C1371.5,767.552285 1371.05228,768 1370.5,768 Z M1470.5,768 C1469.94772,768 1469.5,767.552285 1469.5,767 C1469.5,766.447715 1469.94772,766 1470.5,766 C1471.05228,766 1471.5,766.447715 1471.5,767 C1471.5,767.552285 1471.05228,768 1470.5,768 Z M1569.5,768 C1568.94772,768 1568.5,767.552285 1568.5,767 C1568.5,766.447715 1568.94772,766 1569.5,766 C1570.05228,766 1570.5,766.447715 1570.5,767 C1570.5,767.552285 1570.05228,768 1569.5,768 Z M1669.5,768 C1668.94772,768 1668.5,767.552285 1668.5,767 C1668.5,766.447715 1668.94772,766 1669.5,766 C1670.05228,766 1670.5,766.447715 1670.5,767 C1670.5,767.552285 1670.05228,768 1669.5,768 Z M1769.5,768 C1768.94772,768 1768.5,767.552285 1768.5,767 C1768.5,766.447715 1768.94772,766 1769.5,766 C1770.05228,766 1770.5,766.447715 1770.5,767 C1770.5,767.552285 1770.05228,768 1769.5,768 Z M1869.5,768 C1868.94772,768 1868.5,767.552285 1868.5,767 C1868.5,766.447715 1868.94772,766 1869.5,766 C1870.05228,766 1870.5,766.447715 1870.5,767 C1870.5,767.552285 1870.05228,768 1869.5,768 Z M70.5,858 C69.9477153,858 69.5,857.552285 69.5,857 C69.5,856.447715 69.9477153,856 70.5,856 C71.0522847,856 71.5,856.447715 71.5,857 C71.5,857.552285 71.0522847,858 70.5,858 Z M170.5,858 C169.947715,858 169.5,857.552285 169.5,857 C169.5,856.447715 169.947715,856 170.5,856 C171.052285,856 171.5,856.447715 171.5,857 C171.5,857.552285 171.052285,858 170.5,858 Z M270.5,858 C269.947715,858 269.5,857.552285 269.5,857 C269.5,856.447715 269.947715,856 270.5,856 C271.052285,856 271.5,856.447715 271.5,857 C271.5,857.552285 271.052285,858 270.5,858 Z M370.5,858 C369.947715,858 369.5,857.552285 369.5,857 C369.5,856.447715 369.947715,856 370.5,856 C371.052285,856 371.5,856.447715 371.5,857 C371.5,857.552285 371.052285,858 370.5,858 Z M470.5,858 C469.947715,858 469.5,857.552285 469.5,857 C469.5,856.447715 469.947715,856 470.5,856 C471.052285,856 471.5,856.447715 471.5,857 C471.5,857.552285 471.052285,858 470.5,858 Z M570.5,858 C569.947715,858 569.5,857.552285 569.5,857 C569.5,856.447715 569.947715,856 570.5,856 C571.052285,856 571.5,856.447715 571.5,857 C571.5,857.552285 571.052285,858 570.5,858 Z M670.5,858 C669.947715,858 669.5,857.552285 669.5,857 C669.5,856.447715 669.947715,856 670.5,856 C671.052285,856 671.5,856.447715 671.5,857 C671.5,857.552285 671.052285,858 670.5,858 Z M770.5,858 C769.947715,858 769.5,857.552285 769.5,857 C769.5,856.447715 769.947715,856 770.5,856 C771.052285,856 771.5,856.447715 771.5,857 C771.5,857.552285 771.052285,858 770.5,858 Z M870.5,858 C869.947715,858 869.5,857.552285 869.5,857 C869.5,856.447715 869.947715,856 870.5,856 C871.052285,856 871.5,856.447715 871.5,857 C871.5,857.552285 871.052285,858 870.5,858 Z M970.5,858 C969.947715,858 969.5,857.552285 969.5,857 C969.5,856.447715 969.947715,856 970.5,856 C971.052285,856 971.5,856.447715 971.5,857 C971.5,857.552285 971.052285,858 970.5,858 Z M1070.5,858 C1069.94772,858 1069.5,857.552285 1069.5,857 C1069.5,856.447715 1069.94772,856 1070.5,856 C1071.05228,856 1071.5,856.447715 1071.5,857 C1071.5,857.552285 1071.05228,858 1070.5,858 Z M1170.5,858 C1169.94772,858 1169.5,857.552285 1169.5,857 C1169.5,856.447715 1169.94772,856 1170.5,856 C1171.05228,856 1171.5,856.447715 1171.5,857 C1171.5,857.552285 1171.05228,858 1170.5,858 Z M1270.5,858 C1269.94772,858 1269.5,857.552285 1269.5,857 C1269.5,856.447715 1269.94772,856 1270.5,856 C1271.05228,856 1271.5,856.447715 1271.5,857 C1271.5,857.552285 1271.05228,858 1270.5,858 Z M1370.5,858 C1369.94772,858 1369.5,857.552285 1369.5,857 C1369.5,856.447715 1369.94772,856 1370.5,856 C1371.05228,856 1371.5,856.447715 1371.5,857 C1371.5,857.552285 1371.05228,858 1370.5,858 Z M1470.5,858 C1469.94772,858 1469.5,857.552285 1469.5,857 C1469.5,856.447715 1469.94772,856 1470.5,856 C1471.05228,856 1471.5,856.447715 1471.5,857 C1471.5,857.552285 1471.05228,858 1470.5,858 Z M1569.5,858 C1568.94772,858 1568.5,857.552285 1568.5,857 C1568.5,856.447715 1568.94772,856 1569.5,856 C1570.05228,856 1570.5,856.447715 1570.5,857 C1570.5,857.552285 1570.05228,858 1569.5,858 Z M1669.5,858 C1668.94772,858 1668.5,857.552285 1668.5,857 C1668.5,856.447715 1668.94772,856 1669.5,856 C1670.05228,856 1670.5,856.447715 1670.5,857 C1670.5,857.552285 1670.05228,858 1669.5,858 Z M1769.5,858 C1768.94772,858 1768.5,857.552285 1768.5,857 C1768.5,856.447715 1768.94772,856 1769.5,856 C1770.05228,856 1770.5,856.447715 1770.5,857 C1770.5,857.552285 1770.05228,858 1769.5,858 Z M1869.5,858 C1868.94772,858 1868.5,857.552285 1868.5,857 C1868.5,856.447715 1868.94772,856 1869.5,856 C1870.05228,856 1870.5,856.447715 1870.5,857 C1870.5,857.552285 1870.05228,858 1869.5,858 Z M70.5,945 C69.9477153,945 69.5,944.552285 69.5,944 C69.5,943.447715 69.9477153,943 70.5,943 C71.0522847,943 71.5,943.447715 71.5,944 C71.5,944.552285 71.0522847,945 70.5,945 Z M170.5,945 C169.947715,945 169.5,944.552285 169.5,944 C169.5,943.447715 169.947715,943 170.5,943 C171.052285,943 171.5,943.447715 171.5,944 C171.5,944.552285 171.052285,945 170.5,945 Z M270.5,945 C269.947715,945 269.5,944.552285 269.5,944 C269.5,943.447715 269.947715,943 270.5,943 C271.052285,943 271.5,943.447715 271.5,944 C271.5,944.552285 271.052285,945 270.5,945 Z M370.5,945 C369.947715,945 369.5,944.552285 369.5,944 C369.5,943.447715 369.947715,943 370.5,943 C371.052285,943 371.5,943.447715 371.5,944 C371.5,944.552285 371.052285,945 370.5,945 Z M470.5,945 C469.947715,945 469.5,944.552285 469.5,944 C469.5,943.447715 469.947715,943 470.5,943 C471.052285,943 471.5,943.447715 471.5,944 C471.5,944.552285 471.052285,945 470.5,945 Z M570.5,945 C569.947715,945 569.5,944.552285 569.5,944 C569.5,943.447715 569.947715,943 570.5,943 C571.052285,943 571.5,943.447715 571.5,944 C571.5,944.552285 571.052285,945 570.5,945 Z M670.5,945 C669.947715,945 669.5,944.552285 669.5,944 C669.5,943.447715 669.947715,943 670.5,943 C671.052285,943 671.5,943.447715 671.5,944 C671.5,944.552285 671.052285,945 670.5,945 Z M770.5,945 C769.947715,945 769.5,944.552285 769.5,944 C769.5,943.447715 769.947715,943 770.5,943 C771.052285,943 771.5,943.447715 771.5,944 C771.5,944.552285 771.052285,945 770.5,945 Z M870.5,945 C869.947715,945 869.5,944.552285 869.5,944 C869.5,943.447715 869.947715,943 870.5,943 C871.052285,943 871.5,943.447715 871.5,944 C871.5,944.552285 871.052285,945 870.5,945 Z M970.5,945 C969.947715,945 969.5,944.552285 969.5,944 C969.5,943.447715 969.947715,943 970.5,943 C971.052285,943 971.5,943.447715 971.5,944 C971.5,944.552285 971.052285,945 970.5,945 Z M1070.5,945 C1069.94772,945 1069.5,944.552285 1069.5,944 C1069.5,943.447715 1069.94772,943 1070.5,943 C1071.05228,943 1071.5,943.447715 1071.5,944 C1071.5,944.552285 1071.05228,945 1070.5,945 Z M1170.5,945 C1169.94772,945 1169.5,944.552285 1169.5,944 C1169.5,943.447715 1169.94772,943 1170.5,943 C1171.05228,943 1171.5,943.447715 1171.5,944 C1171.5,944.552285 1171.05228,945 1170.5,945 Z M1270.5,945 C1269.94772,945 1269.5,944.552285 1269.5,944 C1269.5,943.447715 1269.94772,943 1270.5,943 C1271.05228,943 1271.5,943.447715 1271.5,944 C1271.5,944.552285 1271.05228,945 1270.5,945 Z M1370.5,945 C1369.94772,945 1369.5,944.552285 1369.5,944 C1369.5,943.447715 1369.94772,943 1370.5,943 C1371.05228,943 1371.5,943.447715 1371.5,944 C1371.5,944.552285 1371.05228,945 1370.5,945 Z M1470.5,945 C1469.94772,945 1469.5,944.552285 1469.5,944 C1469.5,943.447715 1469.94772,943 1470.5,943 C1471.05228,943 1471.5,943.447715 1471.5,944 C1471.5,944.552285 1471.05228,945 1470.5,945 Z M1569.5,945 C1568.94772,945 1568.5,944.552285 1568.5,944 C1568.5,943.447715 1568.94772,943 1569.5,943 C1570.05228,943 1570.5,943.447715 1570.5,944 C1570.5,944.552285 1570.05228,945 1569.5,945 Z M1669.5,945 C1668.94772,945 1668.5,944.552285 1668.5,944 C1668.5,943.447715 1668.94772,943 1669.5,943 C1670.05228,943 1670.5,943.447715 1670.5,944 C1670.5,944.552285 1670.05228,945 1669.5,945 Z M1769.5,945 C1768.94772,945 1768.5,944.552285 1768.5,944 C1768.5,943.447715 1768.94772,943 1769.5,943 C1770.05228,943 1770.5,943.447715 1770.5,944 C1770.5,944.552285 1770.05228,945 1769.5,945 Z M1869.5,945 C1868.94772,945 1868.5,944.552285 1868.5,944 C1868.5,943.447715 1868.94772,943 1869.5,943 C1870.05228,943 1870.5,943.447715 1870.5,944 C1870.5,944.552285 1870.05228,945 1869.5,945 Z M70.5,1035 C69.9477153,1035 69.5,1034.55228 69.5,1034 C69.5,1033.44772 69.9477153,1033 70.5,1033 C71.0522847,1033 71.5,1033.44772 71.5,1034 C71.5,1034.55228 71.0522847,1035 70.5,1035 Z M170.5,1035 C169.947715,1035 169.5,1034.55228 169.5,1034 C169.5,1033.44772 169.947715,1033 170.5,1033 C171.052285,1033 171.5,1033.44772 171.5,1034 C171.5,1034.55228 171.052285,1035 170.5,1035 Z M270.5,1035 C269.947715,1035 269.5,1034.55228 269.5,1034 C269.5,1033.44772 269.947715,1033 270.5,1033 C271.052285,1033 271.5,1033.44772 271.5,1034 C271.5,1034.55228 271.052285,1035 270.5,1035 Z M370.5,1035 C369.947715,1035 369.5,1034.55228 369.5,1034 C369.5,1033.44772 369.947715,1033 370.5,1033 C371.052285,1033 371.5,1033.44772 371.5,1034 C371.5,1034.55228 371.052285,1035 370.5,1035 Z M470.5,1035 C469.947715,1035 469.5,1034.55228 469.5,1034 C469.5,1033.44772 469.947715,1033 470.5,1033 C471.052285,1033 471.5,1033.44772 471.5,1034 C471.5,1034.55228 471.052285,1035 470.5,1035 Z M570.5,1035 C569.947715,1035 569.5,1034.55228 569.5,1034 C569.5,1033.44772 569.947715,1033 570.5,1033 C571.052285,1033 571.5,1033.44772 571.5,1034 C571.5,1034.55228 571.052285,1035 570.5,1035 Z M670.5,1035 C669.947715,1035 669.5,1034.55228 669.5,1034 C669.5,1033.44772 669.947715,1033 670.5,1033 C671.052285,1033 671.5,1033.44772 671.5,1034 C671.5,1034.55228 671.052285,1035 670.5,1035 Z M770.5,1035 C769.947715,1035 769.5,1034.55228 769.5,1034 C769.5,1033.44772 769.947715,1033 770.5,1033 C771.052285,1033 771.5,1033.44772 771.5,1034 C771.5,1034.55228 771.052285,1035 770.5,1035 Z M870.5,1035 C869.947715,1035 869.5,1034.55228 869.5,1034 C869.5,1033.44772 869.947715,1033 870.5,1033 C871.052285,1033 871.5,1033.44772 871.5,1034 C871.5,1034.55228 871.052285,1035 870.5,1035 Z M970.5,1035 C969.947715,1035 969.5,1034.55228 969.5,1034 C969.5,1033.44772 969.947715,1033 970.5,1033 C971.052285,1033 971.5,1033.44772 971.5,1034 C971.5,1034.55228 971.052285,1035 970.5,1035 Z M1070.5,1035 C1069.94772,1035 1069.5,1034.55228 1069.5,1034 C1069.5,1033.44772 1069.94772,1033 1070.5,1033 C1071.05228,1033 1071.5,1033.44772 1071.5,1034 C1071.5,1034.55228 1071.05228,1035 1070.5,1035 Z M1170.5,1035 C1169.94772,1035 1169.5,1034.55228 1169.5,1034 C1169.5,1033.44772 1169.94772,1033 1170.5,1033 C1171.05228,1033 1171.5,1033.44772 1171.5,1034 C1171.5,1034.55228 1171.05228,1035 1170.5,1035 Z M1270.5,1035 C1269.94772,1035 1269.5,1034.55228 1269.5,1034 C1269.5,1033.44772 1269.94772,1033 1270.5,1033 C1271.05228,1033 1271.5,1033.44772 1271.5,1034 C1271.5,1034.55228 1271.05228,1035 1270.5,1035 Z M1370.5,1035 C1369.94772,1035 1369.5,1034.55228 1369.5,1034 C1369.5,1033.44772 1369.94772,1033 1370.5,1033 C1371.05228,1033 1371.5,1033.44772 1371.5,1034 C1371.5,1034.55228 1371.05228,1035 1370.5,1035 Z M1470.5,1035 C1469.94772,1035 1469.5,1034.55228 1469.5,1034 C1469.5,1033.44772 1469.94772,1033 1470.5,1033 C1471.05228,1033 1471.5,1033.44772 1471.5,1034 C1471.5,1034.55228 1471.05228,1035 1470.5,1035 Z M1569.5,1035 C1568.94772,1035 1568.5,1034.55228 1568.5,1034 C1568.5,1033.44772 1568.94772,1033 1569.5,1033 C1570.05228,1033 1570.5,1033.44772 1570.5,1034 C1570.5,1034.55228 1570.05228,1035 1569.5,1035 Z M1669.5,1035 C1668.94772,1035 1668.5,1034.55228 1668.5,1034 C1668.5,1033.44772 1668.94772,1033 1669.5,1033 C1670.05228,1033 1670.5,1033.44772 1670.5,1034 C1670.5,1034.55228 1670.05228,1035 1669.5,1035 Z M1769.5,1035 C1768.94772,1035 1768.5,1034.55228 1768.5,1034 C1768.5,1033.44772 1768.94772,1033 1769.5,1033 C1770.05228,1033 1770.5,1033.44772 1770.5,1034 C1770.5,1034.55228 1770.05228,1035 1769.5,1035 Z M1869.5,1035 C1868.94772,1035 1868.5,1034.55228 1868.5,1034 C1868.5,1033.44772 1868.94772,1033 1869.5,1033 C1870.05228,1033 1870.5,1033.44772 1870.5,1034 C1870.5,1034.55228 1870.05228,1035 1869.5,1035 Z" id="Combined-Shape" fill="#4A4A4B"></path>
                </g>
            </g>
        </g>
    </g>
</svg>